<svg id="Layer_1" data-name="Layer 1" xmlns="http://www.w3.org/2000/svg" viewBox="0 0 1810 372"><defs><style>.cls-1{fill:#008d70;}.cls-2{font-size:212px;fill:#fff;stroke:#fff;stroke-miterlimit:10;font-family:Montserrat-Medium, Montserrat;font-weight:500;letter-spacing:-0.03em;}.cls-3{letter-spacing:-0.05em;}.cls-4{letter-spacing:-0.05em;}</style></defs><path class="cls-1" d="M120.88,345.63a175.79,175.79,0,0,1-34.13-19.49L113.1,297a136.54,136.54,0,1,0-29.72-27.65L53.53,294.48a175.05,175.05,0,1,1,67.35,51.15Z"/><path class="cls-1" d="M190.17,86.33a98,98,0,1,1-50.92,181.75L255.5,139.5l-136,53,54,1-60.65,51.05A98,98,0,0,1,190.17,86.33Z"/><path class="cls-1" d="M120.88,345.63,57.5,358.5l29.25-32.36A175.79,175.79,0,0,0,120.88,345.63Z"/><text class="cls-2" transform="translate(424.45 265.26)">aduan<tspan class="cls-3" x="653.16" y="0">k</tspan><tspan x="772.31" y="0">on</tspan><tspan class="cls-4" x="1038.16" y="0">t</tspan><tspan x="1115.53" y="0">en</tspan></text></svg>